<svg xmlns="http://www.w3.org/2000/svg" version="1.1" xmlns:xlink="http://www.w3.org/1999/xlink" xmlns:svgjs="http://svgjs.com/svgjs" width="513" height="513"><svg width="513" height="513" viewBox="0 0 513 513" fill="none" xmlns="http://www.w3.org/2000/svg">
<g clip-path="url(#clip0_2439_659)">
<rect width="512" height="512" transform="translate(0.5 0.5)" fill="#3F3C5E"></rect>
<path d="M297.851 116.424H342.978L390.64 232.707H392.668L440.331 116.424H485.458V289.496H449.964V176.847H448.528L403.739 288.65H379.57L334.781 176.425H333.344V289.496H297.851V116.424Z" fill="white"></path>
<path d="M171.556 289.495V116.424H240.852C253.585 116.424 264.204 118.312 272.712 122.086C281.219 125.861 287.613 131.1 291.895 137.805C296.176 144.453 298.317 152.115 298.317 160.791C298.317 167.551 296.965 173.495 294.261 178.622C291.557 183.692 287.838 187.861 283.106 191.129C278.43 194.34 273.078 196.622 267.05 197.974V199.664C273.641 199.946 279.81 201.805 285.557 205.242C291.36 208.678 296.064 213.495 299.669 219.692C303.275 225.833 305.078 233.157 305.078 241.664C305.078 250.847 302.796 259.045 298.233 266.256C293.726 273.411 287.05 279.073 278.205 283.242C269.359 287.411 258.458 289.495 245.5 289.495H171.556ZM208.148 259.58H237.979C248.176 259.58 255.613 257.636 260.289 253.749C264.965 249.805 267.303 244.566 267.303 238.03C267.303 233.242 266.148 229.016 263.838 225.354C261.528 221.692 258.233 218.819 253.951 216.735C249.726 214.65 244.683 213.608 238.824 213.608H208.148V259.58ZM208.148 188.847H235.275C240.289 188.847 244.74 187.974 248.627 186.227C252.571 184.425 255.669 181.889 257.923 178.622C260.233 175.354 261.388 171.439 261.388 166.875C261.388 160.622 259.162 155.579 254.711 151.748C250.317 147.917 244.064 146.002 235.951 146.002H208.148V188.847Z" fill="white"></path>
<path d="M332.666 474.122V436.825L426.182 289.496H458.339V341.121H439.307L380.354 434.419V436.169H513.246V474.122H332.666ZM440.182 513.497V462.747L441.057 446.231V289.496H485.464V513.497H440.182Z" fill="#F73964"></path>
<path d="M173.744 513.498V479.372L253.479 405.544C260.26 398.981 265.948 393.075 270.541 387.825C275.208 382.575 278.745 377.434 281.151 372.403C283.557 367.299 284.76 361.793 284.76 355.887C284.76 349.325 283.265 343.673 280.276 338.934C277.286 334.121 273.203 330.439 268.026 327.887C262.849 325.262 256.979 323.949 250.416 323.949C243.562 323.949 237.583 325.335 232.479 328.106C227.374 330.877 223.437 334.851 220.666 340.028C217.895 345.205 216.51 351.366 216.51 358.512H171.556C171.556 343.856 174.874 331.132 181.509 320.34C188.145 309.548 197.442 301.199 209.4 295.293C221.359 289.387 235.14 286.433 250.744 286.433C266.786 286.433 280.75 289.277 292.635 294.965C304.594 300.579 313.891 308.382 320.526 318.371C327.162 328.361 330.479 339.809 330.479 352.715C330.479 361.174 328.802 369.523 325.448 377.762C322.167 386.002 316.297 395.153 307.839 405.216C299.38 415.205 287.458 427.2 272.073 441.2L239.369 473.247V474.779H333.433V513.498H173.744Z" fill="#F73964"></path>
</g>
<defs>
<clipPath id="SvgjsClipPath1000">
<rect width="512" height="512" fill="white" transform="translate(0.5 0.5)"></rect>
</clipPath>
</defs>
</svg><style>@media (prefers-color-scheme: light) { :root { filter: none; } }
@media (prefers-color-scheme: dark) { :root { filter: contrast(1) brightness(1); } }
</style></svg>