<svg xmlns="http://www.w3.org/2000/svg" version="1.1" xmlns:xlink="http://www.w3.org/1999/xlink" xmlns:svgjs="http://svgjs.com/svgjs" width="512" height="512"><svg width="512" height="512" viewBox="0 0 512 512" fill="none" xmlns="http://www.w3.org/2000/svg">
<g clip-path="url(#clip0_2439_659)">
<rect width="512" height="512" fill="#26546F"></rect>
<path d="M297.351 115.924H342.478L390.14 232.207H392.168L439.831 115.924H484.958V288.996H449.464V176.347H448.028L403.239 288.15H379.07L334.281 175.925H332.844V288.996H297.351V115.924Z" fill="white"></path>
<path d="M171.056 288.995V115.924H240.352C253.085 115.924 263.704 117.812 272.212 121.586C280.719 125.361 287.113 130.6 291.395 137.305C295.676 143.953 297.817 151.615 297.817 160.291C297.817 167.051 296.465 172.995 293.761 178.122C291.057 183.192 287.338 187.361 282.606 190.629C277.93 193.84 272.578 196.122 266.55 197.474V199.164C273.141 199.446 279.31 201.305 285.057 204.742C290.86 208.178 295.564 212.995 299.169 219.192C302.775 225.333 304.578 232.657 304.578 241.164C304.578 250.347 302.296 258.545 297.733 265.756C293.226 272.911 286.55 278.573 277.705 282.742C268.859 286.911 257.958 288.995 245 288.995H171.056ZM207.648 259.08H237.479C247.676 259.08 255.113 257.136 259.789 253.249C264.465 249.305 266.803 244.066 266.803 237.53C266.803 232.742 265.648 228.516 263.338 224.854C261.028 221.192 257.733 218.319 253.451 216.235C249.226 214.15 244.183 213.108 238.324 213.108H207.648V259.08ZM207.648 188.347H234.775C239.789 188.347 244.24 187.474 248.127 185.727C252.071 183.925 255.169 181.389 257.423 178.122C259.733 174.854 260.888 170.939 260.888 166.375C260.888 160.122 258.662 155.079 254.212 151.248C249.817 147.417 243.564 145.502 235.451 145.502H207.648V188.347Z" fill="white"></path>
<path d="M332.166 473.622V436.325L425.682 288.996H457.839V340.621H438.807L379.854 433.919V435.669H512.746V473.622H332.166ZM439.682 512.997V462.247L440.557 445.731V288.996H484.964V512.997H439.682Z" fill="#E34045"></path>
<path d="M173.244 512.998V478.872L252.979 405.044C259.76 398.481 265.448 392.575 270.041 387.325C274.708 382.075 278.245 376.934 280.651 371.903C283.057 366.799 284.26 361.293 284.26 355.387C284.26 348.825 282.765 343.173 279.776 338.434C276.786 333.621 272.703 329.939 267.526 327.387C262.349 324.762 256.479 323.449 249.916 323.449C243.062 323.449 237.083 324.835 231.979 327.606C226.874 330.377 222.937 334.351 220.166 339.528C217.395 344.705 216.01 350.866 216.01 358.012H171.056C171.056 343.356 174.374 330.632 181.009 319.84C187.645 309.048 196.942 300.699 208.9 294.793C220.859 288.887 234.64 285.933 250.244 285.933C266.286 285.933 280.25 288.777 292.135 294.465C304.094 300.079 313.391 307.882 320.026 317.871C326.662 327.861 329.979 339.309 329.979 352.215C329.979 360.674 328.302 369.023 324.948 377.262C321.667 385.502 315.797 394.653 307.339 404.716C298.88 414.705 286.958 426.7 271.573 440.7L238.869 472.747V474.279H332.933V512.998H173.244Z" fill="#E34045"></path>
</g>
<defs>
<clipPath id="SvgjsClipPath1000">
<rect width="512" height="512" fill="white"></rect>
</clipPath>
</defs>
</svg><style>@media (prefers-color-scheme: light) { :root { filter: none; } }
</style></svg>